<?xml version="1.0" encoding="UTF-8" standalone="no"?>
<svg
   xmlns="http://www.w3.org/2000/svg"
   width="105.78762mm"
   height="105.43165mm"
   viewBox="0 0 105.78762 105.43165"
   version="1.1"
   id="svg8">
  <g
     transform="translate(-72.571428,-70.886078)"
     id="layer1">
    <g
       transform="translate(-22.201153,-13.547407)"
       id="g1583">
      <path
         style="opacity:1;fill:#ff6601;fill-opacity:1;stroke-width:0.26648679"
         d="m 151.96968,84.433777 -1.70739,3.175 -0.8506,2.955891 -0.0119,0.315227 h -3.46697 l -0.0119,-0.315227 -0.85059,-2.955891 -1.70171,-3.164665 a 52.916663,52.916663 0 0 0 -0.65577,0.03307 l -0.77618,0.08165 a 52.916663,52.916663 0 0 0 -1.02526,0.155027 l -1.00407,3.437517 -0.21756,3.068029 0.0537,0.310576 -3.39101,0.720886 -0.077,-0.305408 -1.44694,-2.714562 -2.33887,-2.760556 a 52.916663,52.916663 0 0 0 -0.18759,0.04806 l -0.81132,0.263035 a 52.916663,52.916663 0 0 0 -1.33273,0.486791 l -0.26717,3.566708 0.42582,3.046325 0.1173,0.293005 -3.16725,1.41025 -0.13901,-0.283186 -1.97972,-2.354379 -2.87269,-2.222087 -0.48886,0.282154 a 52.916663,52.916663 0 0 0 -1.61541,0.990637 l 0.48111,3.545004 1.04903,2.891295 0.1757,0.262001 -2.80448,2.038116 -0.19482,-0.24856 -2.42569,-1.891359 -3.26957,-1.574581 a 52.916663,52.916663 0 0 0 -1.79834,1.675866 l 1.20923,3.372924 1.62729,2.60966 0.22634,0.22014 -2.31975,2.57607 -0.24236,-0.20205 -2.76573,-1.34566 -3.50986,-0.85731 a 52.916663,52.916663 0 0 0 -1.43092,2.00091 l 1.88929,3.05666 2.13475,2.21434 0.26665,0.16795 -1.73322,3.0024 -0.27906,-0.14728 -2.98534,-0.74156 -3.600819,-0.108 a 52.916663,52.916663 0 0 0 -1.004588,2.24379 l 2.493907,2.60759 2.54868,1.72238 0.2961,0.10852 -1.07176,3.29747 -0.30334,-0.0863 -3.074235,-0.10439 -3.538802,0.64182 a 52.916663,52.916663 0 0 0 -0.537435,2.39417 l 2.997232,2.04226 2.85047,1.15445 0.31264,0.045 -0.36276,3.44785 -0.31471,-0.0212 -3.028759,0.53692 -3.36052,1.37718 v 2.14302 a 52.916663,52.916663 0 0 0 0.01499,0.30127 l 3.345534,1.37098 3.028755,0.53692 0.31471,-0.0212 0.36276,3.44785 -0.31264,0.045 -2.850466,1.15497 -3.001368,2.04535 0.376206,1.76992 a 52.916663,52.916663 0 0 0 0.158128,0.62011 l 3.546039,0.64286 3.074231,-0.10439 0.30334,-0.0863 1.07176,3.29748 -0.2961,0.10852 -2.54868,1.72237 -2.509924,2.62465 0.569474,1.27951 a 52.916663,52.916663 0 0 0 0.457337,0.94671 l 3.594613,-0.108 2.98534,-0.74156 0.27906,-0.14728 1.73322,3.0024 -0.26665,0.16795 -2.13475,2.21485 -1.90944,3.08922 0.47542,0.65474 a 52.916663,52.916663 0 0 0 0.99477,1.30845 l 3.49074,-0.85215 2.76573,-1.34617 0.24236,-0.20205 2.31975,2.57658 -0.22634,0.21963 -1.62729,2.61017 -1.22421,3.41375 a 52.916663,52.916663 0 0 0 1.84381,1.62006 l 3.23908,-1.56012 2.42569,-1.89135 0.19482,-0.24805 2.80448,2.0376 -0.1757,0.262 -1.04903,2.89181 -0.48524,3.57446 a 52.916663,52.916663 0 0 0 2.13372,1.2237 l 2.84737,-2.20245 1.97972,-2.35438 0.13901,-0.28318 3.16725,1.41025 -0.1173,0.29249 -0.42582,3.04632 0.2682,3.58169 a 52.916663,52.916663 0 0 0 2.33629,0.7767 l 2.33319,-2.75384 1.44694,-2.71456 0.077,-0.30592 3.39101,0.72088 -0.0537,0.31058 0.21756,3.06854 1.00355,3.43649 a 52.916663,52.916663 0 0 0 2.44326,0.29714 l 1.71618,-3.19051 0.85059,-2.9564 0.0119,-0.31523 h 3.46697 l 0.0119,0.31523 0.8506,2.9564 1.70635,3.17294 a 52.916663,52.916663 0 0 0 0.4899,-0.0248 l 1.02577,-0.10749 a 52.916663,52.916663 0 0 0 0.93638,-0.14159 l 1.00511,-3.44217 0.21704,-3.06854 -0.0537,-0.31058 3.39152,-0.72088 0.077,0.30592 1.44694,2.71456 2.33887,2.76056 a 52.916663,52.916663 0 0 0 0.19327,-0.0496 l 0.67025,-0.21807 a 52.916663,52.916663 0 0 0 1.46864,-0.53589 l 0.26665,-3.56154 -0.4253,-3.04632 -0.11782,-0.29249 3.16776,-1.41025 0.13901,0.28318 1.97921,2.35438 2.87269,2.22209 0.01,-0.006 a 52.916663,52.916663 0 0 0 2.09238,-1.2826 l -0.47852,-3.52951 -1.04955,-2.89181 -0.1757,-0.262 2.805,-2.0376 0.19482,0.24805 2.42517,1.89135 3.24683,1.56373 a 52.916663,52.916663 0 0 0 1.81229,-1.68827 l -1.20044,-3.34915 -1.62781,-2.61017 -0.22634,-0.21963 2.31976,-2.57658 0.24236,0.20205 2.76572,1.34617 3.47782,0.84904 a 52.916663,52.916663 0 0 0 1.44591,-2.02106 l -1.87224,-3.02824 -2.13423,-2.21485 -0.26717,-0.16795 1.73323,-3.0024 0.27905,0.14728 2.98535,0.74156 3.56102,0.10697 a 52.916663,52.916663 0 0 0 1.01648,-2.27118 l -2.466,-2.57866 -2.54817,-1.72237 -0.2961,-0.10852 1.07125,-3.29748 0.30334,0.0863 3.07423,0.10439 3.49384,-0.63355 a 52.916663,52.916663 0 0 0 0.54467,-2.42776 l -2.95899,-2.01693 -2.85099,-1.15497 -0.31212,-0.045 0.36225,-3.44785 0.31471,0.0212 3.02875,-0.53692 3.31711,-1.35909 a 52.916663,52.916663 0 0 0 0.0434,-1.23145 52.916663,52.916663 0 0 0 -0.0625,-1.25057 l -3.29799,-1.35134 -3.02875,-0.53692 -0.31471,0.0212 -0.36225,-3.44785 0.31212,-0.045 2.85099,-1.15445 2.95899,-2.01694 a 52.916663,52.916663 0 0 0 -0.54363,-2.42775 l -3.49488,-0.63356 -3.07423,0.10439 -0.30334,0.0863 -1.07125,-3.29747 0.2961,-0.10852 2.54817,-1.72238 2.4908,-2.60449 a 52.916663,52.916663 0 0 0 -1.05833,-2.24534 l -3.54397,0.10645 -2.98535,0.74156 -0.27905,0.14728 -1.73323,-3.0024 0.26717,-0.16795 2.13423,-2.21434 1.8955,-3.06544 a 52.916663,52.916663 0 0 0 -1.50224,-1.97611 l -3.44475,0.84129 -2.76572,1.34566 -0.24236,0.20205 -2.31976,-2.57607 0.22634,-0.22014 1.62781,-2.60966 1.20923,-3.374991 a 52.916663,52.916663 0 0 0 -1.86759,-1.640726 l -3.20032,1.541508 -2.42517,1.891359 -0.19482,0.24856 -2.805,-2.038116 0.1757,-0.262001 1.04955,-2.891295 0.47956,-3.538802 a 52.916663,52.916663 0 0 0 -2.15698,-1.237652 l -2.81895,2.180746 -1.97921,2.354379 -0.13901,0.283186 -3.16776,-1.41025 0.11782,-0.293005 0.4253,-3.046325 -0.26613,-3.553788 a 52.916663,52.916663 0 0 0 -2.35645,-0.7829 l -2.3151,2.732651 -1.44694,2.714562 -0.077,0.305408 -3.39152,-0.720886 0.0537,-0.310576 -0.21704,-3.068029 -0.99839,-3.41943 a 52.916663,52.916663 0 0 0 -2.45773,-0.298172 z m -4.32635,22.097363 a 30.61607,30.61607 0 0 1 30.61621,30.6157 30.61607,30.61607 0 0 1 -30.61621,30.61622 30.61607,30.61607 0 0 1 -30.6157,-30.61622 30.61607,30.61607 0 0 1 30.6157,-30.6157 z"
         id="path815-3" />
      <path
         style="opacity:1;fill:#000001;fill-opacity:1;stroke-width:0.26648679"
         d="m 182.05801,97.06373 -3.17655,1.53013 -2.42518,1.89136 -0.19482,0.24857 -1.61437,-1.17306 -11.32902,11.32903 a 30.61607,30.61607 0 0 1 10.58488,10.58074 l 16.02745,-16.02744 a 52.916664,52.916664 0 0 0 -0.29301,-0.35295 l -3.42356,0.83612 -2.76572,1.34566 -0.24237,0.20205 -2.31975,-2.57607 0.22634,-0.22014 1.62781,-2.60966 1.17925,-3.29075 a 52.916664,52.916664 0 0 0 -1.86138,-1.71359 z m -68.7772,0.003 a 52.916664,52.916664 0 0 0 -1.88774,1.65416 l 1.20045,3.3476 1.62729,2.60966 0.22634,0.22014 -2.31976,2.57607 -0.24236,-0.20205 -2.76572,-1.34566 -3.47886,-0.84956 a 52.916664,52.916664 0 0 0 -0.29249,0.35708 l 16.03882,16.03886 a 30.61607,30.61607 0 0 1 10.58126,-10.58488 l -11.30783,-11.30784 -1.5875,1.15394 -0.19482,-0.24856 -2.4257,-1.89136 z m 60.62007,55.75381 a 30.61607,30.61607 0 0 1 -10.58126,10.5854 l 11.32024,11.32024 1.6216,-1.1777 0.19482,0.24804 2.42518,1.89136 3.15071,1.51774 a 52.916664,52.916664 0 0 0 1.89859,-1.67019 l -1.19062,-3.32124 -1.62781,-2.61017 -0.22634,-0.21963 2.31975,-2.57659 0.24237,0.20206 2.76572,1.34617 3.44785,0.84181 a 52.916664,52.916664 0 0 0 0.2775,-0.339 z m -52.51617,0.002 -16.02796,16.02797 a 52.916664,52.916664 0 0 0 0.29249,0.35295 l 3.47007,-0.8475 2.76572,-1.34617 0.24236,-0.20205 2.31976,2.57659 -0.22634,0.21962 -1.62729,2.61018 -1.19476,3.33209 a 52.916664,52.916664 0 0 0 1.83864,1.68982 l 3.21479,-1.54822 2.4257,-1.89136 0.19482,-0.24805 1.59421,1.15807 11.30267,-11.30267 a 30.61607,30.61607 0 0 1 -10.58488,-10.5811 z"
         id="path815-6" />
    </g>
  </g>
</svg>
