<?xml version="1.0" standalone="no"?>
<!DOCTYPE svg PUBLIC "-//W3C//DTD SVG 20010904//EN"
 "http://www.w3.org/TR/2001/REC-SVG-20010904/DTD/svg10.dtd">
<svg version="1.0" xmlns="http://www.w3.org/2000/svg"
 width="800.000000pt" height="800.000000pt" viewBox="0 0 800.000000 800.000000"
 preserveAspectRatio="xMidYMid meet">
<metadata>
Created by potrace 1.14, written by Peter Selinger 2001-2017
</metadata>
<g transform="translate(0.000000,800.000000) scale(0.100000,-0.100000)"
fill="#000000" stroke="none">
<path d="M3543 7977 l-52 -8 -26 -85 c-15 -46 -28 -90 -29 -96 -2 -7 -8 -31
-14 -53 -6 -22 -14 -85 -17 -140 -9 -145 -9 -146 -43 -151 -9 -2 -29 -6 -44
-9 -16 -3 -38 -7 -50 -9 -13 -2 -30 -6 -38 -9 -8 -3 -31 -8 -50 -11 -33 -4
-36 -2 -54 37 -11 23 -32 63 -47 89 -15 25 -25 48 -23 51 2 2 -2 10 -11 17 -8
7 -15 17 -15 23 0 5 -8 17 -18 26 -9 9 -38 41 -62 71 -100 123 -95 119 -143
104 -23 -8 -50 -19 -59 -24 -10 -6 -23 -10 -30 -10 -38 -1 -43 -15 -53 -150
-10 -119 -7 -197 11 -284 15 -74 16 -116 2 -116 -8 0 -36 -11 -64 -24 -79 -38
-154 -69 -157 -65 -24 32 -138 169 -154 186 -12 11 -62 52 -110 89 -48 38 -91
72 -94 77 -7 10 -59 -2 -59 -14 0 -5 -4 -9 -10 -9 -5 0 -32 -14 -59 -30 -53
-33 -53 -32 -36 -140 2 -19 7 -55 10 -80 7 -50 12 -84 15 -87 2 -2 4 -7 5 -13
1 -5 4 -12 5 -15 1 -3 3 -8 4 -12 3 -20 50 -142 67 -175 7 -14 -12 -31 -97
-94 l-105 -76 -32 28 c-17 16 -34 31 -37 34 -3 3 -30 23 -60 45 -30 22 -57 42
-60 46 -3 4 -59 32 -125 64 -66 32 -123 59 -126 61 -3 2 -37 -26 -75 -61 l-68
-65 19 -57 c10 -32 22 -62 25 -68 4 -5 10 -23 14 -40 10 -38 57 -139 68 -143
4 -2 8 -10 8 -18 0 -8 5 -14 10 -14 6 0 10 -4 10 -10 0 -5 16 -34 35 -64 19
-30 35 -58 35 -61 0 -3 -27 -33 -59 -68 -33 -34 -71 -75 -86 -92 -17 -20 -28
-26 -32 -17 -2 6 -9 12 -14 12 -5 0 -55 22 -111 50 -55 27 -113 52 -127 54
-14 2 -27 5 -28 6 -3 3 -3 3 -58 15 -22 4 -44 9 -50 11 -82 20 -97 21 -106 11
-5 -7 -29 -41 -54 -75 l-44 -64 67 -110 c46 -76 96 -141 159 -207 86 -89 108
-121 83 -121 -5 0 -10 -5 -10 -11 0 -7 -10 -28 -22 -48 -13 -20 -23 -38 -23
-41 -1 -4 -46 -79 -59 -97 -1 -1 -32 7 -69 17 -37 10 -67 16 -67 13 0 -3 -6
-1 -12 5 -14 11 -84 25 -138 27 -119 6 -150 7 -191 6 l-45 -1 -37 -82 -37 -81
22 -25 c86 -95 184 -192 194 -192 7 0 14 -4 16 -8 4 -10 128 -96 151 -105 9
-3 17 -10 17 -15 0 -4 -17 -59 -38 -122 l-39 -115 -64 1 c-35 1 -95 3 -134 4
-38 1 -106 -5 -150 -14 -44 -9 -98 -18 -120 -22 -61 -9 -61 -10 -79 -118 -3
-15 -8 -37 -12 -48 -6 -20 24 -58 46 -58 5 0 10 -4 10 -10 0 -5 6 -10 13 -10
8 0 22 -9 32 -20 10 -11 23 -20 30 -20 7 0 19 -8 28 -17 24 -27 130 -78 246
-119 l53 -19 -6 -70 c-14 -154 -22 -199 -34 -191 -4 2 -43 -3 -87 -11 -44 -8
-94 -16 -112 -18 -18 -2 -38 -7 -45 -11 -7 -5 -17 -9 -23 -10 -13 -3 -155 -62
-177 -74 -10 -6 -25 -10 -33 -10 -13 0 -15 -15 -13 -97 l3 -97 131 -53 c72
-29 148 -55 170 -58 21 -3 64 -11 94 -17 30 -6 66 -12 80 -12 14 -1 26 -7 26
-14 1 -7 2 -13 4 -14 1 -2 3 -21 5 -43 6 -78 17 -170 21 -177 2 -3 -8 -11 -24
-16 -70 -26 -246 -102 -251 -109 -3 -5 -33 -26 -66 -48 -33 -22 -64 -43 -70
-48 -5 -4 -21 -15 -34 -25 l-23 -18 16 -71 c19 -84 28 -107 41 -110 61 -9 106
-17 165 -30 14 -3 97 -6 185 -7 l160 -1 37 -110 c20 -61 37 -114 37 -120 0 -5
-46 -41 -103 -78 -68 -45 -133 -99 -193 -161 -50 -52 -93 -98 -97 -104 -7 -11
60 -163 76 -174 6 -3 16 -4 22 -2 6 2 67 6 136 8 112 4 259 31 330 60 8 3 20
2 26 -2 8 -6 110 -176 122 -204 2 -5 -30 -43 -71 -86 -115 -118 -105 -104
-230 -313 l-17 -30 57 -74 c31 -41 59 -72 63 -70 4 2 18 6 33 9 123 22 226 55
332 107 l120 59 38 -42 c21 -24 55 -62 76 -84 21 -23 41 -47 45 -52 4 -6 -23
-58 -59 -116 -59 -94 -155 -316 -155 -358 0 -16 120 -128 138 -128 6 0 67 27
135 60 82 41 152 85 215 136 l93 75 52 -37 c127 -91 157 -117 149 -128 -5 -6
-21 -47 -37 -91 -15 -44 -33 -91 -38 -105 -6 -14 -11 -34 -12 -45 -3 -33 -15
-118 -20 -145 -20 -112 -21 -108 80 -165 44 -24 70 -33 78 -27 7 5 56 44 111
86 54 42 110 91 125 109 14 19 33 40 41 48 8 9 31 36 50 62 19 25 38 47 43 47
4 0 35 -13 70 -28 34 -16 85 -39 114 -52 29 -13 50 -26 48 -30 -5 -8 -14 -54
-21 -110 -3 -25 -8 -58 -11 -75 -7 -40 -7 -33 2 -170 4 -66 8 -130 8 -142 1
-13 7 -23 15 -23 8 0 28 -6 45 -13 41 -18 101 -37 114 -37 5 0 41 37 78 83 38
45 74 87 80 92 14 12 74 117 112 197 25 51 31 57 53 53 42 -7 84 -15 115 -22
17 -4 32 -7 35 -8 3 0 22 -4 43 -8 34 -7 37 -11 37 -40 -4 -110 14 -238 45
-334 8 -23 16 -52 19 -65 10 -50 29 -88 44 -89 10 0 26 -2 37 -4 11 -2 45 -6
75 -9 l55 -5 35 67 c19 37 47 87 61 112 24 42 50 113 80 220 17 60 16 58 18
74 1 11 26 14 129 15 l128 0 17 -62 c10 -34 25 -89 34 -121 8 -33 31 -87 49
-120 19 -34 48 -89 66 -124 l33 -62 55 6 c30 3 66 7 80 9 14 2 30 3 37 4 7 1
17 20 24 44 6 23 15 51 19 62 11 25 23 67 25 80 0 6 6 28 13 50 11 38 23 163
23 248 0 20 2 37 4 37 4 0 130 27 170 36 11 3 34 6 52 8 29 3 33 0 43 -30 7
-19 16 -34 21 -34 5 0 8 -3 7 -7 -4 -12 79 -158 104 -186 13 -14 41 -46 63
-73 22 -26 50 -59 61 -73 l21 -25 62 19 c34 10 64 22 67 26 2 5 11 6 18 3 26
-10 31 10 42 162 9 135 9 125 -12 266 -2 16 -6 42 -9 58 -2 17 -6 34 -9 39 -3
4 23 20 57 35 34 16 78 35 97 44 19 9 37 17 40 17 3 1 13 5 23 10 10 4 19 6
21 4 1 -2 31 -40 67 -84 73 -91 91 -108 214 -204 92 -72 110 -78 143 -45 7 8
20 14 28 14 8 0 14 3 14 8 0 4 16 16 35 26 28 16 34 24 31 45 -2 14 -7 49 -11
76 -3 28 -9 66 -12 85 -3 19 -6 46 -8 60 -3 29 -73 230 -86 246 -11 13 -3 20
114 103 l87 63 38 -32 c106 -89 154 -122 222 -156 36 -18 76 -38 90 -44 14 -6
36 -17 50 -25 14 -8 32 -15 40 -15 15 0 140 114 140 128 0 5 -14 46 -30 93
-17 46 -33 91 -36 99 -3 8 -4 15 -2 15 4 0 -64 117 -102 175 -55 82 -55 82 -1
142 27 29 64 70 82 91 l34 37 122 -60 c67 -33 130 -60 142 -60 11 0 23 -5 26
-10 4 -6 10 -8 14 -6 4 3 39 -4 77 -14 117 -30 107 -33 167 49 47 65 52 77 43
98 -6 12 -14 23 -18 23 -5 0 -8 7 -8 15 0 8 -4 15 -10 15 -5 0 -10 6 -10 13 0
27 -96 157 -176 237 -46 47 -84 88 -84 92 0 5 116 207 124 215 1 1 26 -5 56
-13 30 -8 64 -17 75 -19 11 -2 38 -9 60 -15 22 -6 104 -13 181 -16 111 -4 144
-3 150 8 5 7 23 46 41 86 l32 72 -72 75 c-40 41 -82 86 -94 99 -12 12 -68 54
-125 91 -57 38 -104 70 -106 71 -2 1 14 56 35 121 l38 119 155 0 c139 0 179 3
254 21 18 4 44 8 81 12 19 2 35 18 39 37 3 10 11 48 20 84 l15 65 -32 27 c-18
16 -37 28 -44 28 -6 0 -13 4 -15 8 -13 33 -306 182 -357 182 -14 0 -13 18 5
200 6 64 7 65 42 66 15 1 27 3 27 4 0 1 11 3 25 5 14 2 49 8 79 14 29 6 57 8
62 5 5 -3 9 0 9 7 0 7 3 10 6 6 3 -3 63 18 132 47 l127 52 1 94 1 95 -116 46
c-147 59 -152 61 -176 65 -69 12 -154 25 -178 28 -40 4 -34 -15 -52 186 l-7
75 89 34 c48 18 104 41 123 49 36 17 185 115 208 139 8 7 17 11 22 8 11 -7 23
32 15 46 -4 5 -9 23 -12 39 -2 16 -10 49 -16 72 -12 41 -14 42 -73 54 -124 26
-153 28 -304 29 l-154 0 -26 78 c-15 42 -25 77 -24 77 2 0 -3 15 -11 34 -17
40 -13 59 18 75 91 49 180 117 257 198 122 129 113 113 90 161 -11 22 -20 45
-20 50 0 5 -7 15 -15 22 -8 7 -15 21 -15 31 0 21 -1 21 -110 19 -138 -3 -185
-6 -195 -12 -6 -3 -26 -9 -45 -12 -19 -3 -66 -14 -105 -25 -38 -11 -70 -19
-71 -18 -1 1 -24 40 -51 87 -27 47 -56 95 -64 107 -13 21 -10 26 48 85 111
114 133 141 166 200 17 32 35 58 39 58 5 0 8 5 8 11 0 5 11 26 25 46 l24 36
-40 57 c-22 32 -49 67 -59 78 l-19 20 -78 -20 c-43 -11 -87 -22 -98 -24 -61
-12 -81 -19 -159 -59 -48 -24 -86 -41 -86 -39 0 3 -14 -4 -31 -17 l-30 -21
-36 38 c-44 49 -93 103 -117 131 -20 24 -25 13 90 193 15 25 29 47 30 50 0 3
6 19 13 35 7 17 14 37 16 45 2 8 16 50 31 93 l28 79 -39 35 c-22 19 -52 45
-67 59 -14 13 -32 24 -38 24 -17 0 -244 -112 -248 -122 -2 -4 -9 -8 -16 -8 -6
0 -18 -9 -26 -20 -8 -11 -20 -20 -26 -20 -7 0 -14 -3 -16 -8 -1 -4 -23 -23
-48 -42 -25 -19 -48 -38 -51 -43 -4 -5 -54 26 -113 68 -74 53 -104 81 -98 88
19 24 91 254 97 307 3 30 8 69 10 85 3 17 7 43 10 60 3 21 -2 36 -17 52 -12
13 -25 23 -29 23 -5 0 -31 13 -59 30 -50 29 -51 30 -78 12 -15 -9 -34 -24 -44
-32 -9 -8 -23 -20 -30 -25 -110 -84 -107 -81 -178 -165 -21 -25 -48 -56 -59
-69 -12 -13 -21 -27 -21 -31 0 -14 -30 -20 -48 -11 -9 5 -35 17 -57 26 -89 38
-155 72 -150 77 6 6 9 20 19 98 4 25 9 63 12 85 5 36 8 140 4 140 -1 0 -3 18
-5 40 -2 22 -5 64 -8 94 -4 53 -16 71 -49 71 -9 0 -20 5 -23 10 -3 6 -19 10
-35 10 -16 0 -32 5 -35 10 -12 20 -42 9 -73 -26 -18 -20 -32 -37 -32 -39 0 -2
-13 -18 -29 -37 -16 -18 -42 -48 -58 -66 -16 -18 -53 -82 -83 -142 -61 -120
-52 -115 -150 -90 -19 5 -51 12 -70 15 -19 4 -47 9 -62 12 -16 3 -26 11 -26
22 1 31 -13 226 -18 243 -3 9 -7 25 -9 35 -6 28 -46 165 -57 196 -6 15 -18 27
-27 28 -9 0 -25 2 -36 4 -11 2 -45 7 -75 10 l-55 6 -28 -53 c-75 -140 -108
-208 -111 -224 -2 -11 -14 -53 -27 -94 -25 -82 -26 -84 -28 -103 -1 -11 -29
-14 -129 -14 l-128 -1 -22 77 c-12 42 -24 85 -27 95 -11 49 -30 93 -67 159
-21 40 -42 80 -45 90 -3 9 -9 17 -13 17 -4 0 -11 11 -14 25 -6 23 -11 26 -49
23 -23 -1 -65 -6 -94 -11z m687 -1671 c77 -8 127 -14 160 -22 14 -2 39 -7 56
-9 17 -3 58 -12 90 -21 32 -9 68 -17 79 -19 11 -2 39 -10 63 -19 23 -8 42 -13
42 -9 0 3 6 1 13 -4 6 -5 41 -20 77 -32 172 -61 502 -249 627 -358 17 -16 48
-42 70 -60 60 -49 173 -162 233 -233 30 -35 63 -73 72 -84 10 -11 30 -38 45
-60 15 -23 31 -43 34 -46 3 -3 14 -20 24 -37 11 -18 23 -33 27 -33 4 0 8 -5 8
-11 0 -6 13 -29 29 -52 27 -40 113 -205 144 -277 44 -101 107 -285 122 -354 2
-12 6 -32 9 -46 21 -96 37 -183 42 -230 3 -30 7 -73 10 -95 5 -46 5 -343 0
-395 -17 -169 -57 -364 -106 -510 -21 -63 -44 -128 -51 -145 -7 -16 -13 -32
-14 -35 -13 -38 -82 -181 -124 -253 -83 -146 -245 -358 -368 -482 -70 -71
-173 -165 -181 -165 -2 0 -23 -16 -46 -36 -55 -47 -64 -54 -71 -54 -3 0 -15
-8 -26 -18 -10 -11 -32 -25 -47 -33 -15 -8 -29 -16 -32 -19 -43 -47 -397 -219
-505 -246 -5 -1 -31 -9 -56 -18 -57 -20 -237 -62 -304 -72 -27 -3 -59 -8 -70
-10 -149 -30 -641 -18 -705 16 -10 5 -20 7 -23 4 -15 -15 -379 94 -507 153
-156 71 -348 182 -358 206 -2 4 -10 7 -18 7 -8 0 -14 5 -14 10 0 6 -6 10 -14
10 -8 0 -16 3 -18 8 -1 4 -28 26 -58 48 -132 99 -284 248 -401 394 -45 56
-159 219 -159 227 0 3 -11 20 -24 37 -30 40 -117 213 -157 314 -32 80 -87 249
-95 292 -3 14 -9 41 -14 60 -9 36 -18 83 -26 135 -2 17 -6 41 -9 54 -12 59
-19 178 -19 316 0 194 10 307 40 450 8 39 17 81 20 95 3 14 9 40 15 58 6 18
12 39 13 45 6 27 28 101 36 116 4 9 22 54 40 101 40 104 123 274 156 317 13
17 24 34 24 37 0 5 105 159 130 190 112 140 261 296 355 371 28 22 52 42 55
45 19 19 91 70 99 70 5 0 11 4 13 8 2 7 109 78 193 129 41 24 193 96 255 120
36 14 74 29 85 34 54 24 261 81 345 94 19 3 42 8 50 10 23 6 110 17 158 20 24
1 45 4 47 7 6 6 342 2 415 -6z"/>
</g>
</svg>
